<?xml version="1.0" encoding="utf-8"?>
<!-- Generator: Adobe Illustrator 28.0.0, SVG Export Plug-In . SVG Version: 6.00 Build 0)  -->
<svg version="1.1" id="_Слой_1" xmlns="http://www.w3.org/2000/svg" xmlns:xlink="http://www.w3.org/1999/xlink" x="0px"
	 y="0px" viewBox="0 0 734.6 103.7" style="enable-background:new 0 0 734.6 103.7;" xml:space="preserve">
<style type="text/css">
	.st0{fill-rule:evenodd;clip-rule:evenodd;fill:#1C2650;}
	.st1{fill-rule:evenodd;clip-rule:evenodd;fill:#22417E;}
	.st2{fill:#1C2650;}
	.st3{fill-rule:evenodd;clip-rule:evenodd;fill:#233067;}
	.st4{fill-rule:evenodd;clip-rule:evenodd;fill:#B0B1B1;}
	.st5{fill-rule:evenodd;clip-rule:evenodd;fill:#2F4390;}
	.st6{fill-rule:evenodd;clip-rule:evenodd;fill:#FFFFFF;}
	.st7{fill:#B0B1B1;}
</style>
<g>
	<path class="st0" d="M189.7,62.7V6.6h33.4v56.1h-12V18.7h-9.2v44.1H189.7z M242.6,42.3v20.4h-12.5V6.6h17.2c4.3,0,7.6,0.6,9.9,2
		c2.3,1.4,4.1,3.4,5.3,6.3c1.3,2.8,2,6,2,9.5c0,5.3-1.4,9.6-4.1,12.9s-6.2,4.9-10.8,4.9H242.6L242.6,42.3z M242.5,30.4h4.2
		c3.7,0,5.4-1.9,5.4-5.7c0-3.5-1.6-5.3-5.1-5.3h-4.6V30.4L242.5,30.4L242.5,30.4z M286.5,63.6c-5.7,0-10.4-2.7-13.9-7.9
		c-3.5-5.2-5.3-12.2-5.3-21s1.8-15.3,5.2-20.8c3.4-5.4,8.2-8.2,14.3-8.2c5.6,0,10.3,2.5,13.8,7.7s5.3,12,5.3,20.6
		s-1.8,16.1-5.3,21.4C296.7,61,292.2,63.6,286.5,63.6L286.5,63.6L286.5,63.6z M286.5,51c2.2,0,3.7-1.3,4.6-3.8
		c0.9-2.5,1.4-7.2,1.4-13.9c0-9.8-1.9-14.7-5.7-14.7c-4.1,0-6.1,5.6-6.1,16.7C280.5,45.6,282.5,51,286.5,51L286.5,51L286.5,51z
		 M354.9,6.6v56.1h-11.5V22.6l-7.5,40.2h-8l-7.7-40.2v40.2h-9.2V6.6h16.2l5.8,29.8l5.6-29.8H354.9L354.9,6.6z M378.4,20.2v42.7
		h-11.8V20.2h-8.4V6.6h28.5v13.4L378.4,20.2L378.4,20.2z M420.7,49.4v13.4h-30.4V6.6h30.4v12.9h-18.2v8.1h14.7v12.5h-14.7v9.1h18.2
		V49.4z M460.3,6.6l-11.8,26.1l13.7,30h-14.4l-7.5-17.6l-7.6,17.6h-11.4l13-29L421.9,6.6h14.4l6.2,15.1L449,6.6L460.3,6.6L460.3,6.6
		z M498.9,6.6v56.1h-12.4V41h-9.4v21.8h-12.4V6.6h12.4v20.6h9.4V6.6H498.9z M523.5,63.6c-5.7,0-10.4-2.7-13.9-7.9
		c-3.5-5.2-5.3-12.2-5.3-21s1.8-15.3,5.2-20.8c3.4-5.4,8.2-8.2,14.3-8.2c5.6,0,10.3,2.5,13.8,7.7s5.3,12,5.3,20.6
		s-1.8,16.1-5.3,21.4C534,60.8,529.2,63.6,523.5,63.6L523.5,63.6L523.5,63.6z M523.5,51c2.2,0,3.7-1.3,4.6-3.8
		c0.9-2.5,1.4-7.2,1.4-13.9c0-9.8-1.9-14.7-5.7-14.7c-4.1,0-6.1,5.6-6.1,16.7C517.5,45.6,519.5,51,523.5,51L523.5,51L523.5,51z
		 M552.2,62.7l8.2-39.9l8.1,39.9h12.3L568.3,6.6h-13.2l-12.8,56.1H552.2L552.2,62.7z M600.6,63.6c-5.7,0-10.4-2.7-13.9-7.9
		c-3.5-5.2-5.3-12.2-5.3-21s1.8-15.3,5.2-20.8s8.2-8.2,14.3-8.2c5.6,0,10.3,2.5,13.8,7.7s5.3,12,5.3,20.6s-1.8,16.1-5.3,21.4
		S606.3,63.6,600.6,63.6L600.6,63.6L600.6,63.6z M600.6,51c2.2,0,3.7-1.3,4.6-3.8c0.9-2.5,1.4-7.2,1.4-13.9c0-9.8-1.9-14.7-5.7-14.7
		c-4.1,0-6.1,5.6-6.1,16.7C594.7,45.6,596.7,51,600.6,51L600.6,51L600.6,51z M625.1,62.7V6.6h25.7v13.3h-13.3v42.9h-12.4V62.7z
		 M665.9,56.9v6h-12V6.6h12V29c0,3-0.1,6.6-0.4,10.6c1.5-4.4,2.9-8.5,4.4-11.9l6.3-15.2v-6h12v56.1h-12V40.4c0-3.2,0.1-6.7,0.3-10.6
		c-1.1,3.8-2.7,7.7-4.4,11.9L665.9,56.9L665.9,56.9L665.9,56.9z M717.3,41.3h-5.7l-6.3,21.4h-11.8l8.9-23.6
		c-5.6-2.9-8.4-8.1-8.4-15.3c0-5.6,1.3-9.9,3.9-12.8c2.7-2.9,6.2-4.3,10.8-4.3h21v56.1h-12.4V41.3L717.3,41.3L717.3,41.3z
		 M717.3,18.7h-4.8c-2.4,0-3.9,0.5-4.6,1.6c-0.6,1.1-1,2.4-1,3.7c0,1.9,0.5,3.3,1.4,4.2c1,0.9,2.5,1.3,4.6,1.3h4.4V18.7L717.3,18.7z
		"/>
	<path class="st1" d="M190.2,98.2V81.7h3.3v6.5h6.5v-6.5h3.3v16.5h-3.3V91h-6.3v7.2H190.2z M221.6,98.2H218l-1.4-3.7h-6.6l-1.4,3.7
		h-3.5l6.3-16.5h3.5L221.6,98.2L221.6,98.2L221.6,98.2z M215.5,91.6l-2.3-6.1l-2.2,6.1H215.5z M220.8,81.7l6.1,11.8
		c-0.3,0.9-0.6,1.5-1,1.8c-0.4,0.3-0.9,0.4-1.6,0.4c-0.4,0-0.8,0-1.3,0v2.5c0.5,0.1,1.3,0.1,2.3,0.1c1,0,1.8-0.4,2.4-1
		c0.6-0.8,1.3-1.8,1.9-3l5.6-12.5h-3.5l-3.3,8.5l-3.8-8.5H220.8L220.8,81.7z M236.5,81.7h3.3v3.9c0,1.3,0,2.2,0.1,2.5
		c0.1,0.4,0.4,0.8,0.9,1.1c0.5,0.4,1.1,0.5,2,0.5c0.8,0,1.4-0.1,1.9-0.3s1-0.4,1.4-0.6v-7.1h3.3v16.5h-3.3v-6.6
		c-0.6,0.3-1.4,0.5-2,0.6s-1.3,0.3-1.9,0.3c-1.6,0-3-0.4-4.1-1.1c-1.1-0.8-1.6-2.2-1.6-4.1L236.5,81.7L236.5,81.7L236.5,81.7z
		 M252.9,98.2V81.7h3.3v6.5h6.5v-6.5h3.3v16.5h-3.3V91h-6.5v7.2H252.9z M268.8,90.1c0-1.6,0.3-3,0.8-4.2c0.4-0.9,0.9-1.6,1.5-2.3
		c0.6-0.6,1.4-1.1,2.2-1.5c1-0.4,2.2-0.6,3.5-0.6c2.4,0,4.3,0.8,5.8,2.3c1.4,1.5,2.2,3.5,2.2,6.3c0,2.7-0.8,4.7-2.2,6.2
		c-1.4,1.5-3.4,2.3-5.8,2.3s-4.4-0.8-5.8-2.3C269.5,94.8,268.8,92.6,268.8,90.1L268.8,90.1L268.8,90.1z M272.3,90
		c0,1.9,0.4,3.3,1.3,4.2c0.9,1,1.9,1.4,3.3,1.4c1.3,0,2.4-0.5,3.3-1.4c0.9-1,1.3-2.4,1.3-4.3c0-1.9-0.4-3.3-1.3-4.2
		c-0.9-0.9-1.9-1.4-3.3-1.4c-1.4,0-2.5,0.5-3.3,1.4C272.6,86.7,272.3,88.1,272.3,90L272.3,90L272.3,90z M287,93.8v-3.2h6.2v3.2H287z
		 M295.1,81.7h13v16.5h-3.3V84.5h-6.5v13.7h-3.3L295.1,81.7L295.1,81.7z M311.5,98.2V81.7h5.3c2,0,3.3,0.1,3.9,0.3
		c0.9,0.3,1.8,0.8,2.4,1.6c0.6,0.9,1,1.9,1,3.2c0,1-0.1,1.9-0.5,2.5c-0.4,0.6-0.9,1.3-1.4,1.6s-1.1,0.6-1.8,0.8
		c-0.8,0.1-1.9,0.3-3.4,0.3H315v6.2H311.5L311.5,98.2z M314.8,84.5v4.7h1.8c1.3,0,2.2-0.1,2.7-0.3c0.4-0.1,0.8-0.4,1-0.8
		c0.3-0.4,0.4-0.8,0.4-1.3c0-0.6-0.1-1.1-0.5-1.5c-0.4-0.4-0.8-0.6-1.4-0.8c-0.4-0.1-1.1-0.1-2.4-0.1L314.8,84.5L314.8,84.5z
		 M325.9,90.1c0-1.6,0.3-3,0.8-4.2c0.4-0.9,0.9-1.6,1.5-2.3c0.6-0.6,1.4-1.1,2.2-1.5c1-0.4,2.2-0.6,3.5-0.6c2.4,0,4.3,0.8,5.8,2.3
		c1.4,1.5,2.2,3.5,2.2,6.3c0,2.8-0.8,4.7-2.2,6.2c-1.4,1.5-3.4,2.3-5.8,2.3s-4.4-0.8-5.8-2.3C326.6,94.8,325.9,92.8,325.9,90.1
		L325.9,90.1L325.9,90.1z M329.3,90c0,1.9,0.4,3.3,1.3,4.2c0.9,1,1.9,1.4,3.3,1.4c1.3,0,2.4-0.5,3.3-1.4c0.9-1,1.3-2.4,1.3-4.3
		c0-1.9-0.4-3.3-1.3-4.2c-0.9-0.9-1.9-1.4-3.3-1.4c-1.4,0-2.5,0.5-3.3,1.4C329.7,86.7,329.3,88.1,329.3,90L329.3,90L329.3,90z
		 M344.5,81.7h3v10.9l6.7-10.9h3.3v16.5h-3V87.4l-6.7,10.8h-3.3V81.7L344.5,81.7z M363.2,86.2l-3.3-0.8c0.6-2.7,2.7-4.1,6-4.1
		c1.9,0,3.4,0.4,4.4,1.3s1.5,1.9,1.5,3c0,0.8-0.3,1.5-0.6,2.2c-0.5,0.6-1.1,1.1-2,1.6c1.1,0.4,1.9,0.9,2.4,1.6
		c0.5,0.6,0.8,1.5,0.8,2.5c0,1.4-0.5,2.7-1.6,3.5c-1,0.9-2.7,1.4-4.7,1.4c-1.8,0-3-0.3-4.1-0.9c-1-0.6-1.8-1.6-2.3-3.2l3-1
		c0.4,1,0.8,1.6,1.3,1.9s1.1,0.4,1.9,0.4c1,0,1.8-0.3,2.3-0.6c0.5-0.4,0.8-1,0.8-1.5c0-0.6-0.3-1.3-0.8-1.6s-1.4-0.6-2.4-0.6H365
		v-2.5h0.4c1,0,1.8-0.3,2.3-0.6c0.5-0.5,0.8-1,0.8-1.8c0-0.6-0.3-1.1-0.6-1.5c-0.4-0.4-1-0.6-1.9-0.6
		C364.5,84.2,363.6,84.9,363.2,86.2L363.2,86.2L363.2,86.2z M375.3,81.7h6.6c1.3,0,2.3,0,2.9,0.1s1.3,0.4,1.8,0.6s0.9,0.8,1.3,1.4
		c0.4,0.5,0.5,1.3,0.5,1.9c0,0.8-0.3,1.5-0.6,2.2c-0.4,0.6-1,1.1-1.6,1.4c1,0.3,1.8,0.8,2.3,1.5c0.5,0.8,0.8,1.5,0.8,2.5
		c0,0.8-0.1,1.5-0.5,2.2c-0.4,0.8-0.9,1.3-1.4,1.6c-0.6,0.4-1.4,0.6-2.3,0.8c-0.5,0-1.9,0.1-4.1,0.1h-5.6V81.7L375.3,81.7
		L375.3,81.7z M378.5,84.5v3.8h2.2c1.3,0,2.2,0,2.4,0c0.5-0.1,1-0.3,1.4-0.6c0.4-0.4,0.5-0.8,0.5-1.3c0-0.5-0.1-0.9-0.4-1.3
		c-0.3-0.4-0.6-0.5-1.3-0.6c-0.4,0-1.3,0-2.8,0H378.5L378.5,84.5z M378.5,91v4.4h3c1.1,0,1.9,0,2.3-0.1c0.5-0.1,0.9-0.3,1.1-0.6
		c0.3-0.4,0.5-0.8,0.5-1.4c0-0.5-0.1-0.9-0.4-1.3c-0.3-0.4-0.6-0.6-1-0.8c-0.5-0.1-1.4-0.3-2.9-0.3L378.5,91L378.5,91z M390.6,90.1
		c0-1.6,0.3-3,0.8-4.2c0.4-0.9,0.9-1.6,1.5-2.3c0.6-0.6,1.4-1.1,2.2-1.5c1-0.4,2.2-0.6,3.5-0.6c2.4,0,4.3,0.8,5.8,2.3
		c1.4,1.5,2.2,3.5,2.2,6.3c0,2.8-0.8,4.7-2.2,6.2c-1.4,1.5-3.4,2.3-5.8,2.3c-2.4,0-4.4-0.8-5.8-2.3
		C391.3,94.8,390.6,92.8,390.6,90.1L390.6,90.1L390.6,90.1z M394,90c0,1.9,0.4,3.3,1.3,4.2c0.9,1,1.9,1.4,3.3,1.4
		c1.3,0,2.4-0.5,3.3-1.4c0.9-1,1.3-2.4,1.3-4.3c0-1.9-0.4-3.3-1.3-4.2c-0.9-0.9-1.9-1.4-3.3-1.4c-1.4,0-2.5,0.5-3.3,1.4
		C394.4,86.7,394,88.1,394,90L394,90L394,90z M410.1,81.7h11.4v13.7h1.4v6.3h-2.8v-3.5h-10.3v3.5h-2.8v-6.3h1.4
		c0.6-1.4,1.1-3,1.4-4.9c0.3-1.9,0.4-4.2,0.4-7.1L410.1,81.7L410.1,81.7L410.1,81.7z M413.3,84.5c0,4.9-0.5,8.6-1.4,10.9h6.2V84.5
		H413.3L413.3,84.5z M435.7,92.1l3.2,1c-0.5,1.8-1.3,3.2-2.4,4.1s-2.7,1.3-4.3,1.3c-2.2,0-3.9-0.8-5.4-2.3c-1.4-1.5-2.2-3.5-2.2-6.1
		c0-2.8,0.8-4.8,2.2-6.3c1.4-1.5,3.3-2.3,5.6-2.3c2,0,3.7,0.6,4.9,1.8c0.8,0.8,1.3,1.6,1.6,3l-3.3,0.8c-0.1-0.9-0.6-1.5-1.3-2
		c-0.6-0.5-1.4-0.8-2.3-0.8c-1.3,0-2.2,0.4-2.9,1.3c-0.8,0.9-1.1,2.3-1.1,4.2c0,2,0.4,3.5,1.1,4.4c0.8,0.9,1.8,1.3,2.9,1.3
		c0.9,0,1.6-0.3,2.3-0.9C434.9,94.2,435.4,93.4,435.7,92.1L435.7,92.1L435.7,92.1z M444.9,98.2V84.5h-4.8v-2.8h13v2.8h-4.9v13.7
		H444.9L444.9,98.2z M455.2,81.7h6.6c1.3,0,2.3,0,2.9,0.1s1.3,0.4,1.8,0.6c0.5,0.4,0.9,0.8,1.3,1.4c0.4,0.5,0.5,1.3,0.5,1.9
		c0,0.8-0.3,1.5-0.6,2.2c-0.4,0.6-1,1.1-1.6,1.4c1,0.3,1.8,0.8,2.3,1.5c0.5,0.8,0.8,1.5,0.8,2.5c0,0.8-0.1,1.5-0.5,2.2
		c-0.4,0.8-0.9,1.3-1.4,1.6c-0.6,0.4-1.4,0.6-2.3,0.8c-0.5,0-1.9,0.1-4.1,0.1h-5.6V81.7L455.2,81.7L455.2,81.7z M458.5,84.5v3.8h2.2
		c1.3,0,2.2,0,2.4,0c0.5-0.1,1-0.3,1.4-0.6c0.4-0.4,0.5-0.8,0.5-1.3c0-0.5-0.1-0.9-0.4-1.3c-0.3-0.4-0.6-0.5-1.3-0.6
		c-0.4,0-1.3,0-2.8,0H458.5L458.5,84.5z M458.5,91v4.4h3c1.1,0,1.9,0,2.3-0.1c0.5-0.1,0.9-0.3,1.1-0.6c0.3-0.4,0.5-0.8,0.5-1.4
		c0-0.5-0.1-0.9-0.4-1.3c-0.3-0.4-0.6-0.6-1-0.8c-0.5-0.1-1.4-0.3-2.9-0.3L458.5,91L458.5,91z M471.8,98.2V81.7h12.2v2.8h-8.9v3.7
		h8.2V91h-8.2v4.4h9.1v2.8L471.8,98.2L471.8,98.2z M487.1,98.2V81.7h3.3v6.5h6.5v-6.5h3.3v16.5h-3.3V91h-6.5v7.2H487.1z M503.7,98.2
		V81.7h3.3v6.5h6.5v-6.5h3.3v16.5h-3.3V91H507v7.2H503.7z M519.5,90.1c0-1.6,0.3-3,0.8-4.2c0.4-0.9,0.9-1.6,1.5-2.3
		c0.6-0.6,1.4-1.1,2.2-1.5c1-0.4,2.2-0.6,3.5-0.6c2.4,0,4.3,0.8,5.8,2.3c1.4,1.5,2.2,3.5,2.2,6.3c0,2.8-0.8,4.7-2.2,6.2
		c-1.4,1.5-3.4,2.3-5.8,2.3c-2.4,0-4.4-0.8-5.8-2.3S519.5,92.8,519.5,90.1L519.5,90.1L519.5,90.1z M523,90c0,1.9,0.4,3.3,1.3,4.2
		c0.9,1,1.9,1.4,3.3,1.4c1.3,0,2.4-0.5,3.3-1.4c0.9-1,1.3-2.4,1.3-4.3c0-1.9-0.4-3.3-1.3-4.2c-0.9-0.9-1.9-1.4-3.3-1.4
		s-2.5,0.5-3.3,1.4C523.3,86.7,523,88.1,523,90L523,90L523,90z M538,98.2V81.7h12.2v2.8h-8.9v3.7h8.2V91h-8.2v4.4h9.1v2.8L538,98.2
		L538,98.2z M559.8,81.7h13v16.5h-3.3V84.5h-6.5v13.7h-3.3L559.8,81.7L559.8,81.7z M576.3,98.2V81.7h5.3c2,0,3.3,0.1,3.9,0.3
		c0.9,0.3,1.8,0.8,2.4,1.6c0.6,0.9,1,1.9,1,3.2c0,1-0.1,1.9-0.5,2.5c-0.4,0.6-0.9,1.3-1.4,1.6s-1.1,0.6-1.8,0.8
		c-0.8,0.1-1.9,0.3-3.4,0.3h-2.2v6.2H576.3L576.3,98.2z M579.6,84.5v4.7h1.8c1.3,0,2.2-0.1,2.7-0.3c0.4-0.1,0.8-0.4,1-0.8
		c0.3-0.4,0.4-0.8,0.4-1.3c0-0.6-0.1-1.1-0.5-1.5c-0.4-0.4-0.8-0.6-1.4-0.8c-0.4-0.1-1.1-0.1-2.4-0.1L579.6,84.5L579.6,84.5z
		 M591.6,98.2V81.7h12.2v2.8h-8.9v3.7h8.2V91h-8.2v4.4h9.1v2.8L591.6,98.2L591.6,98.2z M608.2,81.7h11.4v13.7h1.4v6.3h-2.8v-3.5H608
		v3.5h-2.8v-6.3h1.4c0.6-1.4,1.1-3,1.4-4.9c0.3-1.9,0.4-4.2,0.4-7.1L608.2,81.7L608.2,81.7L608.2,81.7z M611.4,84.5
		c0,4.9-0.5,8.6-1.4,10.9h6.2V84.5H611.4L611.4,84.5z M623.3,81.7h13v16.5H633V84.5h-6.5v13.7h-3.3L623.3,81.7L623.3,81.7z
		 M639.8,98.2V81.7h5.3c2,0,3.3,0.1,3.9,0.3c0.9,0.3,1.8,0.8,2.4,1.6c0.6,0.9,1,1.9,1,3.2c0,1-0.1,1.9-0.5,2.5
		c-0.4,0.6-0.9,1.3-1.4,1.6c-0.5,0.4-1.1,0.6-1.8,0.8c-0.8,0.1-1.9,0.3-3.4,0.3h-2.2v6.2H639.8L639.8,98.2z M643.1,84.5v4.7h1.8
		c1.3,0,2.2-0.1,2.7-0.3c0.4-0.1,0.8-0.4,1-0.8c0.3-0.4,0.4-0.8,0.4-1.3c0-0.6-0.1-1.1-0.5-1.5c-0.4-0.4-0.8-0.6-1.4-0.8
		c-0.4-0.1-1.1-0.1-2.4-0.1L643.1,84.5L643.1,84.5z M655.1,81.7h3v10.9l6.7-10.9h3.3v16.5h-3V87.4l-6.7,10.8h-3.3V81.7L655.1,81.7z
		 M681.4,98.2v-6.8h-0.6c-1,0-1.8,0.1-2.3,0.5c-0.4,0.3-1.1,1.3-2.2,2.8l-2.4,3.5h-4.1l2-3.2c0.8-1.3,1.4-2.2,1.9-2.7
		c0.5-0.5,1-1,1.8-1.4c-1.5-0.3-2.7-0.8-3.3-1.6c-0.6-0.9-1-1.8-1-2.9c0-1,0.3-1.9,0.8-2.7c0.5-0.8,1.1-1.3,2-1.5
		c0.9-0.3,2-0.4,3.7-0.4h7v16.5L681.4,98.2L681.4,98.2z M681.4,84.5h-2.5c-1.3,0-2.2,0-2.5,0.1c-0.4,0-0.8,0.3-1,0.6
		c-0.3,0.4-0.5,0.8-0.5,1.4c0,0.5,0.1,1,0.4,1.4c0.3,0.4,0.6,0.5,1.1,0.6c0.5,0.1,1.4,0.1,2.7,0.1h2.4V84.5L681.4,84.5L681.4,84.5z
		 M691.8,98.2V84.5H687v-2.8h13v2.8h-4.8v13.7H691.8L691.8,98.2z M702.1,81.7h3v10.9l6.7-10.9h3.3v16.5h-3V87.4l-6.7,10.8h-3.3V81.7
		L702.1,81.7z M718.6,98.2V81.7h12.2v2.8h-8.9v3.7h8.2V91h-8.2v4.4h9.1v2.8L718.6,98.2L718.6,98.2z"/>
	<rect x="188.1" y="70.6" class="st2" width="542.9" height="2.5"/>
</g>
<g>
	<polygon class="st3" points="55.3,7.5 77.8,1.7 77.8,96.2 55.3,96.2 	"/>
	<polygon class="st4" points="92.3,7.5 77.8,1.7 77.8,96.2 92.3,96.2 	"/>
	<polygon class="st3" points="107.2,56.9 83.4,51.6 83.4,96.2 107.2,96.2 	"/>
	<polygon class="st5" points="107.2,56.9 97.4,54.7 97.4,96.2 107.2,96.2 	"/>
	<polygon class="st6" points="83.4,96.2 92.3,96.2 92.3,53.6 83.4,51.6 	"/>
	<g>
		<polygon class="st3" points="47,40 47,40 62.2,36.5 62.2,96.2 47,96.2 		"/>
		<polygon class="st5" points="47,40 47,40 49.6,39.4 49.6,96.2 47,96.2 		"/>
		<polygon class="st6" points="62.2,96.2 55.3,96.2 55.3,38.1 62.2,36.5 		"/>
	</g>
	<rect x="0.8" y="98.9" class="st7" width="152.6" height="2.7"/>
	<rect x="83.3" y="89.7" class="st7" width="23.8" height="6.5"/>
	<rect x="47" y="93.2" class="st7" width="15.2" height="3"/>
	<polygon class="st3" points="31.5,70.5 37.8,68.2 37.8,96.2 31.5,96.2 	"/>
	<polygon class="st4" points="70.1,27.8 70.1,11.9 62.5,13 62.2,27.9 64.9,27.9 65.1,15.8 67.2,15.5 67.1,27.9 	"/>
	<polygon class="st3" points="83.9,16.2 83.9,27.8 87.2,27.8 87.2,16.8 89.3,17.2 89.3,13.8 81.3,11.9 81.3,15.7 	"/>
	<rect x="37.8" y="68.2" class="st7" width="4.6" height="28"/>
	<polygon class="st3" points="16.6,75.7 22.9,73.8 22.9,96.2 16.6,96.2 	"/>
	<rect x="23" y="73.8" class="st7" width="4.6" height="22.4"/>
	<polygon class="st3" points="1.9,80.6 8.2,79.2 8.2,96.2 1.9,96.2 	"/>
	<rect x="8.2" y="79.2" class="st7" width="4.6" height="17"/>
	<polygon class="st3" points="123.3,70.5 117,68.2 117,96.2 123.3,96.2 	"/>
	<rect x="112.4" y="68.2" class="st7" width="4.6" height="28"/>
	<polygon class="st3" points="138.2,75.7 131.9,73.8 131.9,96.2 138.2,96.2 	"/>
	<rect x="127.2" y="73.8" class="st7" width="4.6" height="22.4"/>
	<polygon class="st3" points="152.9,80.6 146.6,79.2 146.6,96.2 152.9,96.2 	"/>
	<rect x="141.9" y="79.2" class="st7" width="4.6" height="17"/>
</g>
</svg>
