<?xml version="1.0" encoding="utf-8"?>
<!-- Generator: Adobe Illustrator 28.0.0, SVG Export Plug-In . SVG Version: 6.00 Build 0)  -->
<svg version="1.1" id="_Слой_1" xmlns="http://www.w3.org/2000/svg" xmlns:xlink="http://www.w3.org/1999/xlink" x="0px"
	 y="0px" viewBox="0 0 614.1 103.7" style="enable-background:new 0 0 614.1 103.7;" xml:space="preserve">
<style type="text/css">
	.st0{fill-rule:evenodd;clip-rule:evenodd;fill:#1C2650;}
	.st1{fill-rule:evenodd;clip-rule:evenodd;fill:#22417E;}
	.st2{fill:#1C2650;}
	.st3{fill-rule:evenodd;clip-rule:evenodd;fill:#233067;}
	.st4{fill-rule:evenodd;clip-rule:evenodd;fill:#B0B1B1;}
	.st5{fill-rule:evenodd;clip-rule:evenodd;fill:#2F4390;}
	.st6{fill-rule:evenodd;clip-rule:evenodd;fill:#FFFFFF;}
	.st7{fill:#B0B1B1;}
</style>
<g>
	<path class="st0" d="M183.9,61.8V17.5h26.4v44.3h-9.5V27h-7.3v34.8H183.9z M225.7,45.7v16.1h-9.9V17.5h13.6c3.4,0,6,0.5,7.8,1.6
		c1.8,1.1,3.2,2.7,4.2,5c1,2.2,1.6,4.7,1.6,7.5c0,4.2-1.1,7.6-3.2,10.2s-4.9,3.9-8.5,3.9H225.7L225.7,45.7z M225.6,36.3h3.3
		c2.9,0,4.3-1.5,4.3-4.5c0-2.8-1.3-4.2-4-4.2h-3.6L225.6,36.3L225.6,36.3L225.6,36.3z M260.3,62.5c-4.5,0-8.2-2.1-11-6.2
		c-2.8-4.1-4.2-9.6-4.2-16.6s1.4-12.1,4.1-16.4c2.7-4.3,6.5-6.5,11.3-6.5c4.4,0,8.1,2,10.9,6.1c2.8,4.1,4.2,9.5,4.2,16.3
		s-1.4,12.7-4.2,16.9C268.4,60.4,264.8,62.5,260.3,62.5L260.3,62.5L260.3,62.5z M260.3,52.5c1.7,0,2.9-1,3.6-3c0.7-2,1.1-5.7,1.1-11
		c0-7.7-1.5-11.6-4.5-11.6c-3.2,0-4.8,4.4-4.8,13.2C255.6,48.3,257.2,52.5,260.3,52.5L260.3,52.5L260.3,52.5z M314.3,17.5v44.3h-9.1
		V30.1l-5.9,31.7H293l-6.1-31.7v31.7h-7.3V17.5h12.8l4.6,23.5l4.4-23.5L314.3,17.5L314.3,17.5z M332.9,28.2v33.7h-9.3V28.2H317V17.5
		h22.5v10.6L332.9,28.2L332.9,28.2z M366.3,51.3v10.6h-24V17.5h24v10.2h-14.4v6.4h11.6V44h-11.6v7.2H366.3z M397.5,17.5l-9.3,20.6
		l10.8,23.7h-11.4l-5.9-13.9l-6,13.9h-9L377,38.9l-9.8-21.4h11.4l4.9,11.9l5.1-11.9L397.5,17.5L397.5,17.5z M428,17.5v44.3h-9.8
		V44.6h-7.4v17.2H401V17.5h9.8v16.3h7.4V17.5H428z M447.4,62.5c-4.5,0-8.2-2.1-11-6.2c-2.8-4.1-4.2-9.6-4.2-16.6s1.4-12.1,4.1-16.4
		c2.7-4.3,6.5-6.5,11.3-6.5c4.4,0,8.1,2,10.9,6.1s4.2,9.5,4.2,16.3s-1.4,12.7-4.2,16.9S451.9,62.5,447.4,62.5L447.4,62.5L447.4,62.5
		z M447.4,52.5c1.7,0,2.9-1,3.6-3c0.7-2,1.1-5.7,1.1-11c0-7.7-1.5-11.6-4.5-11.6c-3.2,0-4.8,4.4-4.8,13.2
		C442.7,48.3,444.3,52.5,447.4,52.5L447.4,52.5L447.4,52.5z M470.1,61.8l6.5-31.5l6.4,31.5h9.7l-9.9-44.3h-10.4l-10.1,44.3H470.1
		L470.1,61.8z M508.3,62.5c-4.5,0-8.2-2.1-11-6.2c-2.8-4.1-4.2-9.6-4.2-16.6s1.4-12.1,4.1-16.4c2.7-4.3,6.5-6.5,11.3-6.5
		c4.4,0,8.1,2,10.9,6.1c2.8,4.1,4.2,9.5,4.2,16.3s-1.4,12.7-4.2,16.9S512.8,62.5,508.3,62.5L508.3,62.5L508.3,62.5z M508.3,52.5
		c1.7,0,2.9-1,3.6-3c0.7-2,1.1-5.7,1.1-11c0-7.7-1.5-11.6-4.5-11.6c-3.2,0-4.8,4.4-4.8,13.2C503.6,48.3,505.2,52.5,508.3,52.5
		L508.3,52.5L508.3,52.5z M527.6,61.8V17.5h20.3V28h-10.5v33.9H527.6L527.6,61.8z M559.8,57.2v4.7h-9.5V17.5h9.5v17.7
		c0,2.4-0.1,5.2-0.3,8.4c1.2-3.5,2.3-6.7,3.5-9.4l5-12v-4.7h9.5v44.3h-9.5V44.2c0-2.5,0.1-5.3,0.2-8.4c-0.9,3-2.1,6.1-3.5,9.4
		L559.8,57.2L559.8,57.2L559.8,57.2z M600.4,44.9h-4.5l-5,16.9h-9.3l7-18.6c-4.4-2.3-6.6-6.4-6.6-12.1c0-4.4,1-7.8,3.1-10.1
		c2.1-2.3,4.9-3.4,8.5-3.4h16.6v44.3h-9.8L600.4,44.9L600.4,44.9L600.4,44.9z M600.4,27h-3.8c-1.9,0-3.1,0.4-3.6,1.3
		c-0.5,0.9-0.8,1.9-0.8,2.9c0,1.5,0.4,2.6,1.1,3.3c0.8,0.7,2,1,3.6,1h3.5L600.4,27L600.4,27z"/>
	<path class="st1" d="M184.3,89.8v-13h2.6v5.1h5.1v-5.1h2.6v13h-2.6v-5.7H187v5.7H184.3z M209.1,89.8h-2.8l-1.1-2.9H200l-1.1,2.9
		h-2.8l5-13h2.8L209.1,89.8L209.1,89.8L209.1,89.8z M204.3,84.6l-1.8-4.8l-1.7,4.8H204.3z M208.5,76.8l4.8,9.3
		c-0.2,0.7-0.5,1.2-0.8,1.4c-0.3,0.2-0.7,0.3-1.3,0.3c-0.3,0-0.6,0-1,0v2c0.4,0.1,1,0.1,1.8,0.1s1.4-0.3,1.9-0.8
		c0.5-0.6,1-1.4,1.5-2.4l4.4-9.9H217l-2.6,6.7l-3-6.7L208.5,76.8L208.5,76.8z M220.9,76.8h2.6v3.1c0,1,0,1.7,0.1,2
		c0.1,0.3,0.3,0.6,0.7,0.9s0.9,0.4,1.6,0.4c0.6,0,1.1-0.1,1.5-0.2c0.4-0.1,0.8-0.3,1.1-0.5v-5.6h2.6v13h-2.6v-5.2
		c-0.5,0.2-1.1,0.4-1.6,0.5s-1,0.2-1.5,0.2c-1.3,0-2.4-0.3-3.2-0.9c-0.9-0.6-1.3-1.7-1.3-3.2L220.9,76.8L220.9,76.8L220.9,76.8z
		 M233.8,89.8v-13h2.6v5.1h5.1v-5.1h2.6v13h-2.6v-5.7h-5.1v5.7H233.8z M246.4,83.4c0-1.3,0.2-2.4,0.6-3.3c0.3-0.7,0.7-1.3,1.2-1.8
		c0.5-0.5,1.1-0.9,1.7-1.2c0.8-0.3,1.7-0.5,2.8-0.5c1.9,0,3.4,0.6,4.6,1.8c1.1,1.2,1.7,2.8,1.7,5c0,2.1-0.6,3.7-1.7,4.9
		c-1.1,1.2-2.7,1.8-4.6,1.8s-3.5-0.6-4.6-1.8C246.9,87.1,246.4,85.4,246.4,83.4L246.4,83.4L246.4,83.4z M249.1,83.3
		c0,1.5,0.3,2.6,1,3.3c0.7,0.8,1.5,1.1,2.6,1.1c1,0,1.9-0.4,2.6-1.1c0.7-0.8,1-1.9,1-3.4c0-1.5-0.3-2.6-1-3.3
		c-0.7-0.7-1.5-1.1-2.6-1.1c-1.1,0-2,0.4-2.6,1.1C249.4,80.7,249.1,81.8,249.1,83.3L249.1,83.3L249.1,83.3z M260.7,86.3v-2.5h4.9
		v2.5H260.7z M267.1,76.8h10.3v13h-2.6V79h-5.1v10.8h-2.6V76.8L267.1,76.8z M280.1,89.8v-13h4.2c1.6,0,2.6,0.1,3.1,0.2
		c0.7,0.2,1.4,0.6,1.9,1.3c0.5,0.7,0.8,1.5,0.8,2.5c0,0.8-0.1,1.5-0.4,2s-0.7,1-1.1,1.3c-0.4,0.3-0.9,0.5-1.4,0.6
		c-0.6,0.1-1.5,0.2-2.7,0.2h-1.7v4.9L280.1,89.8L280.1,89.8z M282.7,79v3.7h1.4c1,0,1.7-0.1,2.1-0.2c0.3-0.1,0.6-0.3,0.8-0.6
		c0.2-0.3,0.3-0.6,0.3-1c0-0.5-0.1-0.9-0.4-1.2c-0.3-0.3-0.6-0.5-1.1-0.6c-0.3-0.1-0.9-0.1-1.9-0.1L282.7,79L282.7,79z M291.4,83.4
		c0-1.3,0.2-2.4,0.6-3.3c0.3-0.7,0.7-1.3,1.2-1.8c0.5-0.5,1.1-0.9,1.7-1.2c0.8-0.3,1.7-0.5,2.8-0.5c1.9,0,3.4,0.6,4.6,1.8
		c1.1,1.2,1.7,2.8,1.7,5s-0.6,3.7-1.7,4.9c-1.1,1.2-2.7,1.8-4.6,1.8s-3.5-0.6-4.6-1.8C292,87.1,291.4,85.5,291.4,83.4L291.4,83.4
		L291.4,83.4z M294.1,83.3c0,1.5,0.3,2.6,1,3.3c0.7,0.8,1.5,1.1,2.6,1.1c1,0,1.9-0.4,2.6-1.1c0.7-0.8,1-1.9,1-3.4
		c0-1.5-0.3-2.6-1-3.3c-0.7-0.7-1.5-1.1-2.6-1.1c-1.1,0-2,0.4-2.6,1.1C294.4,80.7,294.1,81.8,294.1,83.3L294.1,83.3L294.1,83.3z
		 M306.1,76.8h2.4v8.6l5.3-8.6h2.6v13h-2.4v-8.5l-5.3,8.5h-2.6V76.8L306.1,76.8z M320.9,80.3l-2.6-0.6c0.5-2.1,2.1-3.2,4.7-3.2
		c1.5,0,2.7,0.3,3.5,1c0.8,0.7,1.2,1.5,1.2,2.4c0,0.6-0.2,1.2-0.5,1.7c-0.4,0.5-0.9,0.9-1.6,1.3c0.9,0.3,1.5,0.7,1.9,1.3
		c0.4,0.5,0.6,1.2,0.6,2c0,1.1-0.4,2.1-1.3,2.8c-0.8,0.7-2.1,1.1-3.7,1.1c-1.4,0-2.4-0.2-3.2-0.7c-0.8-0.5-1.4-1.3-1.8-2.5l2.4-0.8
		c0.3,0.8,0.6,1.3,1,1.5c0.4,0.2,0.9,0.3,1.5,0.3c0.8,0,1.4-0.2,1.8-0.5s0.6-0.8,0.6-1.2c0-0.5-0.2-1-0.6-1.3
		c-0.4-0.3-1.1-0.5-1.9-0.5h-0.6v-2h0.3c0.8,0,1.4-0.2,1.8-0.5c0.4-0.4,0.6-0.8,0.6-1.4c0-0.5-0.2-0.9-0.5-1.2
		c-0.3-0.3-0.8-0.5-1.5-0.5C321.9,78.7,321.2,79.3,320.9,80.3L320.9,80.3L320.9,80.3z M330.4,76.8h5.2c1,0,1.8,0,2.3,0.1
		c0.5,0.1,1,0.3,1.4,0.5s0.7,0.6,1,1.1c0.3,0.4,0.4,1,0.4,1.5c0,0.6-0.2,1.2-0.5,1.7c-0.3,0.5-0.8,0.9-1.3,1.1
		c0.8,0.2,1.4,0.6,1.8,1.2c0.4,0.6,0.6,1.2,0.6,2c0,0.6-0.1,1.2-0.4,1.7c-0.3,0.6-0.7,1-1.1,1.3c-0.5,0.3-1.1,0.5-1.8,0.6
		c-0.4,0-1.5,0.1-3.2,0.1h-4.4L330.4,76.8L330.4,76.8L330.4,76.8z M333,79v3h1.7c1,0,1.7,0,1.9,0c0.4-0.1,0.8-0.2,1.1-0.5
		c0.3-0.3,0.4-0.6,0.4-1c0-0.4-0.1-0.7-0.3-1s-0.5-0.4-1-0.5c-0.3,0-1,0-2.2,0L333,79L333,79z M333,84.1v3.5h2.4
		c0.9,0,1.5,0,1.8-0.1c0.4-0.1,0.7-0.2,0.9-0.5s0.4-0.6,0.4-1.1c0-0.4-0.1-0.7-0.3-1c-0.2-0.3-0.5-0.5-0.8-0.6
		c-0.4-0.1-1.1-0.2-2.3-0.2H333L333,84.1z M342.5,83.4c0-1.3,0.2-2.4,0.6-3.3c0.3-0.7,0.7-1.3,1.2-1.8c0.5-0.5,1.1-0.9,1.7-1.2
		c0.8-0.3,1.7-0.5,2.8-0.5c1.9,0,3.4,0.6,4.6,1.8c1.1,1.2,1.7,2.8,1.7,5s-0.6,3.7-1.7,4.9c-1.1,1.2-2.7,1.8-4.6,1.8
		c-1.9,0-3.5-0.6-4.6-1.8C343.1,87.1,342.5,85.5,342.5,83.4L342.5,83.4L342.5,83.4z M345.2,83.3c0,1.5,0.3,2.6,1,3.3
		c0.7,0.8,1.5,1.1,2.6,1.1c1,0,1.9-0.4,2.6-1.1c0.7-0.8,1-1.9,1-3.4c0-1.5-0.3-2.6-1-3.3c-0.7-0.7-1.5-1.1-2.6-1.1s-2,0.4-2.6,1.1
		C345.5,80.7,345.2,81.8,345.2,83.3L345.2,83.3L345.2,83.3z M357.9,76.8h9v10.8h1.1v5h-2.2v-2.8h-8.1v2.8h-2.2v-5h1.1
		c0.5-1.1,0.9-2.4,1.1-3.9c0.2-1.5,0.3-3.3,0.3-5.6L357.9,76.8L357.9,76.8L357.9,76.8z M360.4,79c0,3.9-0.4,6.8-1.1,8.6h4.9V79
		H360.4L360.4,79z M378.1,85l2.5,0.8c-0.4,1.4-1,2.5-1.9,3.2c-0.9,0.7-2.1,1-3.4,1c-1.7,0-3.1-0.6-4.3-1.8c-1.1-1.2-1.7-2.8-1.7-4.8
		c0-2.2,0.6-3.8,1.7-5c1.1-1.2,2.6-1.8,4.4-1.8c1.6,0,2.9,0.5,3.9,1.4c0.6,0.6,1,1.3,1.3,2.4L378,81c-0.1-0.7-0.5-1.2-1-1.6
		s-1.1-0.6-1.8-0.6c-1,0-1.7,0.3-2.3,1c-0.6,0.7-0.9,1.8-0.9,3.3c0,1.6,0.3,2.8,0.9,3.5c0.6,0.7,1.4,1,2.3,1c0.7,0,1.3-0.2,1.8-0.7
		C377.5,86.6,377.9,86,378.1,85L378.1,85L378.1,85z M385.4,89.8V79h-3.8v-2.2h10.3V79H388v10.8H385.4L385.4,89.8z M393.5,76.8h5.2
		c1,0,1.8,0,2.3,0.1c0.5,0.1,1,0.3,1.4,0.5c0.4,0.3,0.7,0.6,1,1.1c0.3,0.4,0.4,1,0.4,1.5c0,0.6-0.2,1.2-0.5,1.7
		c-0.3,0.5-0.8,0.9-1.3,1.1c0.8,0.2,1.4,0.6,1.8,1.2c0.4,0.6,0.6,1.2,0.6,2c0,0.6-0.1,1.2-0.4,1.7c-0.3,0.6-0.7,1-1.1,1.3
		c-0.5,0.3-1.1,0.5-1.8,0.6c-0.4,0-1.5,0.1-3.2,0.1h-4.4L393.5,76.8L393.5,76.8L393.5,76.8z M396.1,79v3h1.7c1,0,1.7,0,1.9,0
		c0.4-0.1,0.8-0.2,1.1-0.5c0.3-0.3,0.4-0.6,0.4-1c0-0.4-0.1-0.7-0.3-1c-0.2-0.3-0.5-0.4-1-0.5c-0.3,0-1,0-2.2,0L396.1,79L396.1,79z
		 M396.1,84.1v3.5h2.4c0.9,0,1.5,0,1.8-0.1c0.4-0.1,0.7-0.2,0.9-0.5s0.4-0.6,0.4-1.1c0-0.4-0.1-0.7-0.3-1c-0.2-0.3-0.5-0.5-0.8-0.6
		c-0.4-0.1-1.1-0.2-2.3-0.2H396.1L396.1,84.1z M406.6,89.8v-13h9.6V79h-7v2.9h6.5v2.2h-6.5v3.5h7.2v2.2L406.6,89.8L406.6,89.8z
		 M418.7,89.8v-13h2.6v5.1h5.1v-5.1h2.6v13h-2.6v-5.7h-5.1v5.7H418.7z M431.8,89.8v-13h2.6v5.1h5.1v-5.1h2.6v13h-2.6v-5.7h-5.1v5.7
		H431.8z M444.3,83.4c0-1.3,0.2-2.4,0.6-3.3c0.3-0.7,0.7-1.3,1.2-1.8s1.1-0.9,1.7-1.2c0.8-0.3,1.7-0.5,2.8-0.5
		c1.9,0,3.4,0.6,4.6,1.8c1.1,1.2,1.7,2.8,1.7,5s-0.6,3.7-1.7,4.9c-1.1,1.2-2.7,1.8-4.6,1.8s-3.5-0.6-4.6-1.8
		C444.9,87.1,444.3,85.5,444.3,83.4L444.3,83.4L444.3,83.4z M447,83.3c0,1.5,0.3,2.6,1,3.3c0.7,0.8,1.5,1.1,2.6,1.1
		c1,0,1.9-0.4,2.6-1.1c0.7-0.8,1-1.9,1-3.4c0-1.5-0.3-2.6-1-3.3c-0.7-0.7-1.5-1.1-2.6-1.1c-1.1,0-2,0.4-2.6,1.1
		C447.3,80.7,447,81.8,447,83.3L447,83.3L447,83.3z M458.9,89.8v-13h9.6V79h-7v2.9h6.5v2.2h-6.5v3.5h7.2v2.2L458.9,89.8L458.9,89.8z
		 M476.1,76.8h10.3v13h-2.6V79h-5.1v10.8h-2.6V76.8L476.1,76.8z M489.1,89.8v-13h4.2c1.6,0,2.6,0.1,3.1,0.2c0.7,0.2,1.4,0.6,1.9,1.3
		c0.5,0.7,0.8,1.5,0.8,2.5c0,0.8-0.1,1.5-0.4,2c-0.3,0.5-0.7,1-1.1,1.3c-0.4,0.3-0.9,0.5-1.4,0.6c-0.6,0.1-1.5,0.2-2.7,0.2h-1.7v4.9
		L489.1,89.8L489.1,89.8z M491.7,79v3.7h1.4c1,0,1.7-0.1,2.1-0.2c0.3-0.1,0.6-0.3,0.8-0.6c0.2-0.3,0.3-0.6,0.3-1
		c0-0.5-0.1-0.9-0.4-1.2s-0.6-0.5-1.1-0.6c-0.3-0.1-0.9-0.1-1.9-0.1L491.7,79L491.7,79z M501.2,89.8v-13h9.6V79h-7v2.9h6.5v2.2h-6.5
		v3.5h7.2v2.2L501.2,89.8L501.2,89.8z M514.3,76.8h9v10.8h1.1v5h-2.2v-2.8h-8.1v2.8h-2.2v-5h1.1c0.5-1.1,0.9-2.4,1.1-3.9
		c0.2-1.5,0.3-3.3,0.3-5.6L514.3,76.8L514.3,76.8L514.3,76.8z M516.8,79c0,3.9-0.4,6.8-1.1,8.6h4.9V79H516.8L516.8,79z M526.2,76.8
		h10.3v13h-2.6V79h-5.1v10.8h-2.6V76.8L526.2,76.8z M539.2,89.8v-13h4.2c1.6,0,2.6,0.1,3.1,0.2c0.7,0.2,1.4,0.6,1.9,1.3
		c0.5,0.7,0.8,1.5,0.8,2.5c0,0.8-0.1,1.5-0.4,2c-0.3,0.5-0.7,1-1.1,1.3c-0.4,0.3-0.9,0.5-1.4,0.6c-0.6,0.1-1.5,0.2-2.7,0.2h-1.7v4.9
		L539.2,89.8L539.2,89.8z M541.8,79v3.7h1.4c1,0,1.7-0.1,2.1-0.2c0.3-0.1,0.6-0.3,0.8-0.6c0.2-0.3,0.3-0.6,0.3-1
		c0-0.5-0.1-0.9-0.4-1.2c-0.3-0.3-0.6-0.5-1.1-0.6c-0.3-0.1-0.9-0.1-1.9-0.1L541.8,79L541.8,79z M551.3,76.8h2.4v8.6l5.3-8.6h2.6v13
		h-2.4v-8.5l-5.3,8.5h-2.6V76.8L551.3,76.8z M572.1,89.8v-5.4h-0.5c-0.8,0-1.4,0.1-1.8,0.4c-0.3,0.2-0.9,1-1.7,2.2l-1.9,2.8H563
		l1.6-2.5c0.6-1,1.1-1.7,1.5-2.1c0.4-0.4,0.8-0.8,1.4-1.1c-1.2-0.2-2.1-0.6-2.6-1.3c-0.5-0.7-0.8-1.4-0.8-2.3c0-0.8,0.2-1.5,0.6-2.1
		c0.4-0.6,0.9-1,1.6-1.2c0.7-0.2,1.6-0.3,2.9-0.3h5.5v13L572.1,89.8L572.1,89.8z M572.1,79h-2c-1,0-1.7,0-2,0.1
		c-0.3,0-0.6,0.2-0.8,0.5c-0.2,0.3-0.4,0.6-0.4,1.1c0,0.4,0.1,0.8,0.3,1.1c0.2,0.3,0.5,0.4,0.9,0.5c0.4,0.1,1.1,0.1,2.1,0.1h1.9
		L572.1,79L572.1,79L572.1,79z M580.3,89.8V79h-3.8v-2.2h10.3V79h-3.8v10.8H580.3L580.3,89.8z M588.4,76.8h2.4v8.6l5.3-8.6h2.6v13
		h-2.4v-8.5l-5.3,8.5h-2.6V76.8L588.4,76.8z M601.4,89.8v-13h9.6V79h-7v2.9h6.5v2.2h-6.5v3.5h7.2v2.2L601.4,89.8L601.4,89.8z"/>
	<rect x="182.7" y="68" class="st2" width="428.6" height="2"/>
</g>
<g>
	<polygon class="st3" points="55.3,7.5 77.8,1.7 77.8,96.2 55.3,96.2 	"/>
	<polygon class="st4" points="92.3,7.5 77.8,1.7 77.8,96.2 92.3,96.2 	"/>
	<polygon class="st3" points="107.2,56.9 83.4,51.6 83.4,96.2 107.2,96.2 	"/>
	<polygon class="st5" points="107.2,56.9 97.4,54.7 97.4,96.2 107.2,96.2 	"/>
	<polygon class="st6" points="83.4,96.2 92.3,96.2 92.3,53.6 83.4,51.6 	"/>
	<g>
		<polygon class="st3" points="47,40 47,40 62.2,36.5 62.2,96.2 47,96.2 		"/>
		<polygon class="st5" points="47,40 47,40 49.6,39.4 49.6,96.2 47,96.2 		"/>
		<polygon class="st6" points="62.2,96.2 55.3,96.2 55.3,38.1 62.2,36.5 		"/>
	</g>
	<rect x="0.8" y="98.9" class="st7" width="152.6" height="2.7"/>
	<rect x="83.3" y="89.7" class="st7" width="23.8" height="6.5"/>
	<rect x="47" y="93.2" class="st7" width="15.2" height="3"/>
	<polygon class="st3" points="31.5,70.5 37.8,68.2 37.8,96.2 31.5,96.2 	"/>
	<polygon class="st4" points="70.1,27.8 70.1,11.9 62.5,13 62.2,27.9 64.9,27.9 65.1,15.8 67.2,15.5 67.1,27.9 	"/>
	<polygon class="st3" points="83.9,16.2 83.9,27.8 87.2,27.8 87.2,16.8 89.3,17.2 89.3,13.8 81.3,11.9 81.3,15.7 	"/>
	<rect x="37.8" y="68.2" class="st7" width="4.6" height="28"/>
	<polygon class="st3" points="16.6,75.7 22.9,73.8 22.9,96.2 16.6,96.2 	"/>
	<rect x="23" y="73.8" class="st7" width="4.6" height="22.4"/>
	<polygon class="st3" points="1.9,80.6 8.2,79.2 8.2,96.2 1.9,96.2 	"/>
	<rect x="8.2" y="79.2" class="st7" width="4.6" height="17"/>
	<polygon class="st3" points="123.3,70.5 117,68.2 117,96.2 123.3,96.2 	"/>
	<rect x="112.4" y="68.2" class="st7" width="4.6" height="28"/>
	<polygon class="st3" points="138.2,75.7 131.9,73.8 131.9,96.2 138.2,96.2 	"/>
	<rect x="127.2" y="73.8" class="st7" width="4.6" height="22.4"/>
	<polygon class="st3" points="152.9,80.6 146.6,79.2 146.6,96.2 152.9,96.2 	"/>
	<rect x="141.9" y="79.2" class="st7" width="4.6" height="17"/>
</g>
</svg>
